<svg xmlns="http://www.w3.org/2000/svg" xmlns:xlink="http://www.w3.org/1999/xlink" width="120" height="128" version="1.1" viewBox="0 0 120 128"><title>Page 1</title><desc>Created with Sketch.</desc><defs><polygon id="path-1" points="112.65 127.738 112.65 .065 .222 .065 .222 127.738 112.65 127.738"/><polygon id="path-3" points="0 127.738 119.979 127.738 119.979 .065 0 .065"/></defs><g id="Page-1" fill="none" fill-rule="evenodd" stroke="none" stroke-width="1"><g><polygon id="Fill-1" fill="#96A9B2" points="0 54.621 0 120.868 51.851 124.559 51.851 54.621"/><g id="Group-20" transform="translate(0.000000, 0.196843)"><g id="Group-4" transform="translate(7.329243, 0.000000)"><mask id="mask-2" fill="#fff"><use xlink:href="#path-1"/></mask><path id="Fill-2" fill="#E5E4DF" d="M110.384844,20.8018585 L110.027282,20.8018585 L97.0440507,9.58759264 L97.0440507,15.6711264 L97.0469301,20.8018585 L95.6046397,20.8018585 L91.9499648,8.00054969 L91.9499648,2.33033292 C91.9499648,1.07912638 90.9356499,0.0650732106 89.6844434,0.0650732106 L7.73355583,0.0650732106 L7.77857832,120.186922 L0.222128425,127.738137 L97.1097521,127.738137 L105.098889,127.738137 C109.269229,127.738137 112.650366,124.357261 112.650366,120.186922 L112.650366,23.06738 C112.650366,21.8161734 111.636051,20.8018585 110.384844,20.8018585" mask="url(#mask-2)"/></g><mask id="mask-4" fill="#fff"><use xlink:href="#path-3"/></mask><polygon id="Fill-5" fill="#BFBCAF" points="28.568 74.813 69.496 74.813 69.496 70.282 28.568 70.282" mask="url(#mask-4)"/><path id="Fill-7" fill="#96A9B2" d="M15.1028221,120.186817 C15.1028221,124.357418 11.7219468,127.738294 7.5513456,127.738294 C3.38074438,127.738294 -0.000130879346,124.357418 -0.000130879346,120.186817 C-0.000130879346,116.016216 3.38074438,112.635341 7.5513456,112.635341 C11.7219468,112.635341 15.1028221,116.016216 15.1028221,120.186817" mask="url(#mask-4)"/><path id="Fill-8" fill="#597B91" d="M89.7346487,18.6938634 L30.8334462,18.6938634 C29.5822397,18.6938634 28.5679247,19.7081783 28.5679247,20.9593849 L28.5679247,30.1782642 L28.583892,30.1782642 C28.6660843,31.3546078 29.6364237,32.2864687 30.8334462,32.2864687 L89.7346487,32.2864687 C90.9316712,32.2864687 91.9020106,31.3546078 91.9839411,30.1782642 L91.9999084,30.1782642 L91.9999084,20.9593849 C91.9999084,19.7081783 90.9858552,18.6938634 89.7346487,18.6938634" mask="url(#mask-4)"/><path id="Fill-9" fill="#597B91" d="M30.7800998,63.4856442 L67.2993636,63.4856442 C68.5212532,63.4856442 69.5114863,62.4951493 69.5114863,61.2735215 L69.5114863,56.6362045 C69.5114863,55.4143149 68.5212532,54.42382 67.2993636,54.42382 L30.7800998,54.42382 C29.5582102,54.42382 28.5679771,55.4143149 28.5679771,56.6362045 L28.5679771,61.2735215 C28.5679771,62.4951493 29.5582102,63.4856442 30.7800998,63.4856442" mask="url(#mask-4)"/><polygon id="Fill-10" fill="#BFBCAF" points="28.583 86.14 69.511 86.14 69.511 81.609 28.583 81.609" mask="url(#mask-4)"/><polygon id="Fill-11" fill="#BFBCAF" points="28.583 97.467 69.511 97.467 69.511 92.936 28.583 92.936" mask="url(#mask-4)"/><polygon id="Fill-12" fill="#BFBCAF" points="28.583 108.794 69.511 108.794 69.511 104.263 28.583 104.263" mask="url(#mask-4)"/><polygon id="Fill-13" fill="#BFBCAF" points="76.308 108.794 106.371 108.794 106.371 104.263 76.308 104.263" mask="url(#mask-4)"/><polygon id="Fill-14" fill="#597B91" points="104.102 54.424 78.567 54.424 76.308 56.689 76.308 95.202 78.567 97.467 104.102 97.467 106.371 95.202 106.371 56.689" mask="url(#mask-4)"/><path id="Fill-15" fill="#597B91" d="M80.8386748,56.6893677 C80.8386748,57.9405742 79.8243599,58.9548892 78.5731534,58.9548892 C77.3222086,58.9548892 76.3078937,57.9405742 76.3078937,56.6893677 C76.3078937,55.4381611 77.3222086,54.4238462 78.5731534,54.4238462 C79.8243599,54.4238462 80.8386748,55.4381611 80.8386748,56.6893677" mask="url(#mask-4)"/><path id="Fill-16" fill="#597B91" d="M106.371167,56.6893677 C106.371167,57.9405742 105.356852,58.9548892 104.105646,58.9548892 C102.854701,58.9548892 101.840386,57.9405742 101.840386,56.6893677 C101.840386,55.4381611 102.854701,54.4238462 104.105646,54.4238462 C105.356852,54.4238462 106.371167,55.4381611 106.371167,56.6893677" mask="url(#mask-4)"/><path id="Fill-17" fill="#597B91" d="M80.8386748,95.2015836 C80.8386748,96.4527902 79.8243599,97.4671051 78.5731534,97.4671051 C77.3222086,97.4671051 76.3078937,96.4527902 76.3078937,95.2015836 C76.3078937,93.9503771 77.3222086,92.9360622 78.5731534,92.9360622 C79.8243599,92.9360622 80.8386748,93.9503771 80.8386748,95.2015836" mask="url(#mask-4)"/><path id="Fill-18" fill="#597B91" d="M106.371167,95.2015836 C106.371167,96.4527902 105.356852,97.4671051 104.105646,97.4671051 C102.854701,97.4671051 101.840386,96.4527902 101.840386,95.2015836 C101.840386,93.9503771 102.854701,92.9360622 104.105646,92.9360622 C105.356852,92.9360622 106.371167,93.9503771 106.371167,95.2015836" mask="url(#mask-4)"/><polygon id="Fill-19" fill="#BFBCAF" points="119.735 22.051 98.742 22.051 98.742 .897 119.281 21.435" mask="url(#mask-4)"/></g></g></g></svg>